<svg xmlns="http://www.w3.org/2000/svg" width="512" height="512" viewBox="0 0 512 512"><defs><linearGradient id="bg" x1="0" y1="0" x2="1" y2="1"><stop offset="0" stop-color="#1e3a5f"/><stop offset="1" stop-color="#0f1b2d"/></linearGradient><linearGradient id="amber" x1="0" y1="0" x2="0" y2="1"><stop offset="0" stop-color="#fbbf24"/><stop offset="1" stop-color="#f97316"/></linearGradient></defs><rect width="512" height="512" rx="110" fill="url(#bg)"/>
<rect x="70" y="96" width="150" height="320" rx="14" fill="url(#amber)"/>
<rect x="112" y="70" width="66" height="34" rx="8" fill="#fbbf24"/>
<rect x="92" y="124" width="26" height="26" rx="5" fill="#7c2d12" opacity="0.55"/>
<rect x="132" y="124" width="26" height="26" rx="5" fill="#7c2d12" opacity="0.55"/>
<rect x="172" y="124" width="26" height="26" rx="5" fill="#7c2d12" opacity="0.55"/>
<rect x="92" y="168" width="26" height="26" rx="5" fill="#7c2d12" opacity="0.55"/>
<rect x="132" y="168" width="26" height="26" rx="5" fill="#7c2d12" opacity="0.55"/>
<rect x="172" y="168" width="26" height="26" rx="5" fill="#7c2d12" opacity="0.55"/>
<rect x="92" y="212" width="26" height="26" rx="5" fill="#7c2d12" opacity="0.55"/>
<rect x="132" y="212" width="26" height="26" rx="5" fill="#7c2d12" opacity="0.55"/>
<rect x="172" y="212" width="26" height="26" rx="5" fill="#7c2d12" opacity="0.55"/>
<rect x="92" y="256" width="26" height="26" rx="5" fill="#7c2d12" opacity="0.55"/>
<rect x="132" y="256" width="26" height="26" rx="5" fill="#7c2d12" opacity="0.55"/>
<rect x="172" y="256" width="26" height="26" rx="5" fill="#7c2d12" opacity="0.55"/>
<rect x="92" y="300" width="26" height="26" rx="5" fill="#7c2d12" opacity="0.55"/>
<rect x="132" y="300" width="26" height="26" rx="5" fill="#7c2d12" opacity="0.55"/>
<rect x="172" y="300" width="26" height="26" rx="5" fill="#7c2d12" opacity="0.55"/>
<rect x="92" y="344" width="26" height="26" rx="5" fill="#7c2d12" opacity="0.55"/>
<rect x="132" y="344" width="26" height="26" rx="5" fill="#7c2d12" opacity="0.55"/>
<rect x="172" y="344" width="26" height="26" rx="5" fill="#7c2d12" opacity="0.55"/>
<rect x="250" y="132" width="192" height="64" rx="14" fill="#f8fafc"/><rect x="272" y="152" width="120" height="10" rx="5" fill="#334155"/><rect x="272" y="170" width="70" height="8" rx="4" fill="#94a3b8"/>
<rect x="250" y="224" width="192" height="64" rx="14" fill="#f8fafc" opacity="0.85"/><rect x="272" y="244" width="130" height="10" rx="5" fill="#334155"/><rect x="272" y="262" width="60" height="8" rx="4" fill="#94a3b8"/>
<rect x="250" y="316" width="192" height="64" rx="14" fill="#f8fafc" opacity="0.7"/><rect x="272" y="336" width="100" height="10" rx="5" fill="#334155"/><rect x="272" y="354" width="80" height="8" rx="4" fill="#94a3b8"/>
</svg>
